# xmcd
#
# Track frame offsets:
# 150
# 8075
# 13905
# 27075
# 49767
# 56657
# 81025
# 83592
# 117332
# 124715
# 139690
# 142512
# 156642
# 160230
# 187682
#
# Disc length: 2551 seconds
#
#
# Revision: 0
# Processed by: cddbd v1.5.1PL2 Copyright (c) Steve Scherf et al.
# Submitted via: FreeRIP 2.944 
#
DISCID=b309f50f
DTITLE=cd 3 - Cianci, Lombardini-Smith, Morigi, Bonitatibus, Poleri-Tosi, Centner - Griselda - cd 3
DYEAR=1992
DGENRE=Opera
TTITLE0=Recitativo: "Risoluta è quest'alma" (Roberto, Costanza)
TTITLE1=Recitativo: "E per sempre v'unisca" (Griselda, Costanza, Corrado, Roberto)
TTITLE2=Recitativo: "Griselda - (Il Re!)" (Gualtiero, Griselda, Costanza, Corrado, Roberto)
TTITLE3=Aria: "Son felice tanto" (Griselda)
TTITLE4=Recitativo: "Temo! - Pavento!" (Roberto, Costanza, Gualtiero, Corrado)
TTITLE5=Aria: "Moribonda, quest'alma dolente" (Roberto)
TTITLE6=Recitativo: "Posso Roberto amar?" (Costanza)
TTITLE7=Aria: "Ombre vane, ingiusti orrori" (Costanza)
TTITLE8=recitativo: "L'empio s'ascolti" (Gualtiero, Ottone)
TTITLE9=Aria: "Dopo un'orrida procella" (Ottone)
TTITLE10=Recitativo: "Soffri Griselda ancora" (Gualtiero)
TTITLE11=Aria: "Sento che l'alma teme" (Gualtiero)
TTITLE12=Recitativo: "Ministri accelerate" (Griselda)
TTITLE13=Recitativo: "Griselda! - Altro non manca" (Tutti)
TTITLE14=Coro "Imeneo, che se d'amore"
EXTD=dirige Francesco Fanna, Solistes Montbellier - Moscou
EXTT0=
EXTT1=
EXTT2=
EXTT3=
EXTT4=
EXTT5=
EXTT6=
EXTT7=
EXTT8=
EXTT9=
EXTT10=
EXTT11=
EXTT12=
EXTT13=
EXTT14=
PLAYORDER=
